<svg xmlns="http://www.w3.org/2000/svg" width="655" height="342" viewBox="0 0 655 342">
  <defs>
    <style>
      .cls-1 {
        fill: #92400e;
        fill-rule: evenodd;
      }
    </style>
  </defs>
  <path id="Color_Fill_1" data-name="Color Fill 1" class="cls-1" d="M0,0H55C65.63,0,77.933-.867,86,2a82.867,82.867,0,0,1,43,34c9.208,14.612,9,37.094,9,61v48h-1q-0.5,7-1,14c-9.5,28.239-27.09,44.129-56,53l-22,1H17V339H0V0ZM17,17V195H59l21-1v-1l6-1v-1l4-1v-1h2l1-2,4-1,3-4h2l3-4h1v-2l4-3v-2l2-1,7-16c2.846-8.539,1-25.449,1-36V64h-1q-1-5.5-2-11h-1V51h-1q-1-3-2-6l-2-1V42l-2-1V39l-4-3-6-7H97l-2-3-4-1-1-2-5-1V21H83V20H80V19L69,18V17H17ZM440,89v17l-31,1v1h-4v1h-2v1h-3v1h-2v1h-2l-1,2-4,1-2,3h-2l-4,5-2,1v2l-3,2v2l-2,1c-8.765,13.875-6,41.728-6,64V339H352V109H336V91h34v19h1l7-8h2l2-3,6-2,1-2h3V94h2V93C405.819,87.891,423.312,89.027,440,89ZM584,339H566V320h-1l-5,6h-2l-2,3h-2q-0.5,1-1,2l-3,1v1l-9,3v1h-2v1h-3v1h-4v1h-5v1c-6.008,1.731-27.03-.592-31-2v-1h-3v-1h-3v-1h-2v-1h-2v-1h-2l-2-2h-2l-1-2h-2l-2-3h-2l-3-4-7-6v-2l-3-2v-2l-2-1-1-4h-1l-2-6h-1q-1-4.5-2-9h-1q-0.5-10.5-1-21c0-7.65-1.351-17.945,1-24h1v-2h1q0.5-2.5,1-5l2-1v-2l2-1v-2l2-1,5-6h2l2-3h2l1-2,4-1v-1l6-2v-1h3v-1h2v-1l5-1v-1h3v-1h2v-1h3v-1h2v-1l6-1v-1h2v-1l6-1v-1h2v-1l5-1v-1l6-1v-1h2v-1l6-1v-1h2v-1h3v-1h2v-1l9-2c4.229-1.835,8.891-4.865,14-6V148h-1q-0.5-4.5-1-9h-1v-3h-1v-2h-1q-1-3-2-6l-2-1v-2l-2-1v-2l-5-4-2-3h-2q-0.5-1-1-2h-2q-0.5-1-1-2l-5-1v-1c-2.725-1.076-17.022-4.141-21-3v1h-6v1h-4v1h-3v1l-6,2v1h-2v1h-2l-2,3c-11.444,8.118-21.116,20.462-21,40H453c-0.407-33.828,20.146-55.68,44-65h4c22.529-7.956,45-.066,59,10l4,5,5,4v2l3,2q0.5,2,1,4l2,1v2h1q0.5,2,1,4h1q0.5,2.5,1,5h1v3h1v4h1v5h1v9h1V339ZM167,91h17V228c0,17.332-2.488,43.344,2,57v4l7,14,3,2v2l2,1,3,4h2l2,3,14,7,10,1v1h11v-1l12-2v-1h2v-1l6-2,1-2h2l1-2h2l1-2,6-5v-2l3-2v-2l2-2v-2h1v-2h1v-2h1c5.6-12.809,3-44.733,3-63V91h18V339H284V320h-1c-2.579,4.466-6.76,6.138-11,9l-1,2-3,1v1l-9,3v1h-2v1h-3c-5.677,2.149-10.745,3-19,3H223v-1h-5v-1h-4v-1h-3v-1h-3v-1l-6-2v-1l-4-1-1-2h-2l-2-3h-2l-5-6-5-4v-2l-3-2v-2l-2-1q-0.5-2-1-4h-1l-2-6h-1q-1-4.5-2-9h-1v-5h-1V91ZM565,203c-2.091,2.21-4.143,1.648-7,3v1h-3v1h-3v1h-2v1l-6,1v1h-3v1h-2v1l-6,1v1h-2v1l-5,1v1l-6,1v1h-2v1h-3v1h-2v1l-6,1v1h-2v1h-3v1h-2v1h-3v1h-3v1l-4,1v1h-3l-1,2-6,2-2,3h-2l-8,9c-1.484,3.287-3.7,25.249-2,31h1v5h1v4h1v3h1v2h1l2,6,10,12h2l2,3,14,7,10,1v1c4.7,1.322,20.1-1.731,23-3v-1h2v-1l6-2q0.5-1,1-2h2q0.5-1,1-2h2l2-3,5-4v-2l3-2v-2l2-2v-2h1v-2h1v-2h1q0.5-3,1-6h1c2.808-8.43,1-21.891,1-32V217C566,212.945,567.02,205.3,565,203Zm68,101c9.278-.068,12.565,2.315,17,7l2,1c1.154,1.685.039,2.254,2,4,0.329,4.355,1.859,10.951-1,14-1.124,5.753-11.733,15.046-21,12-2.217-.729-4.229-2.346-7-3l-3-4h-1v-2l-2-1c-2.454-4.706-.48-13.177,0-18,2.3-1.46,2.9-4.482,5-6h2v-1c1.237-.963,1.94-0.71,3-2h4v-1Z"/>
</svg>
