<svg xmlns="http://www.w3.org/2000/svg" width="700" height="500" viewBox="0 0 700 500">
  <defs>
    <style>
      .cls-1 {
        fill: #89370c;
        fill-rule: evenodd;
      }
    </style>
  </defs>
  <path id="Color_Fill_1" data-name="Color Fill 1" class="cls-1" d="M9,25H26V347H133v16c-7.66,2.794-28.785,1-39,1H9V25Zm198,89c29.613-.268,47.886,8.9,60,26l3,2v2l2,1v2l2,2v2h1v2h1l1,4h1q1,5.5,2,11h1q0.5,13,1,26v52c0,28.086,3.055,62.38-6,82h-1v2l-2,1-1,4h-1l-1,3-2,1v2l-5,4-6,7h-2l-2,3-4,1-1,2h-2v1l-4,1v1l-9,2v1h-4v1h-5v1c-6.78,1.946-26.791-1.341-31-3v-1h-3v-1h-2v-1l-5-1-1-2-4-1-1-2h-2l-2-3h-2l-2-3-7-6v-2l-3-2v-2l-2-1v-2l-2-2v-2h-1v-2h-1v-2h-1v-3c-8.393-21.021-5-60.164-5-89,0-25.477-2.953-59.9,5-78h1v-2h1q1-3,2-6l2-1v-2l2-1v-2l3-2v-2l6-5q0.5-1,1-2h2l2-3h2l2-3,4-1v-1l6-2v-1h3v-1h2v-1h4v-1h4v-1h6v-1ZM333,476H317c-2.751-7.556-1-24.31-1-34V117h17v19h1c2.478-4.288,6.933-6.244,11-9l1-2,3-1v-1c10.511-6.632,32.359-11.775,48-7h5v1l6,1v1l6,2v1h2v1l4,1,1,2h2l2,3h2l5,6,4,3v2l3,2v2l2,1c13.183,20.847,10,56.246,10,90v52c0,9.425.109,18.109-2,25v5h-1q-0.5,3-1,6h-1v2h-1l-1,5-2,1-1,4-2,1v2l-2,1v2l-8,7-3,4h-2l-2,3-4,1-1,2h-2v1l-4,1v1h-3v1h-3v1c-4.259,1.65-23.144,4.98-30,3v-1h-6v-1h-4v-1h-3v-1h-2v-1h-3v-1l-4-1v-1l-4-1v-1l-3-1-1-2h-2l-2-3-8-6V476ZM545,114c29.613-.268,47.886,8.9,60,26l3,2v2l2,1v2l2,2v2h1v2h1q0.5,2,1,4h1q1,5.5,2,11h1q0.5,13,1,26v52c0,28.086,3.056,62.38-6,82h-1v2l-2,1q-0.5,2-1,4h-1q-0.5,1.5-1,3l-2,1v2l-5,4-6,7h-2l-2,3-4,1q-0.5,1-1,2h-2v1l-4,1v1l-9,2v1h-4v1h-5v1c-6.78,1.946-26.791-1.341-31-3v-1h-3v-1h-2v-1l-5-1q-0.5-1-1-2l-4-1q-0.5-1-1-2h-2l-2-3h-2l-2-3-7-6v-2l-3-2v-2l-2-1v-2l-2-2v-2h-1v-2h-1v-2h-1v-3c-8.393-21.021-5-60.164-5-89,0-25.477-2.953-59.9,5-78h1v-2h1l2-6,2-1v-2l2-1v-2l3-2v-2l2-1,5-6h2l3-4h2q0.5-1,1-2l4-1v-1l6-2v-1h3v-1h2v-1h4v-1h4v-1h6v-1ZM208,131v1h-6v1h-3v1h-3v1h-2v1h-2l-2,2h-2q-0.5,1-1,2h-2l-2,3h-2q-0.5,1-1,2l-4,3v2l-3,2v2l-2,1q-0.5,2-1,4h-1v2h-1v3h-1v2h-1q-0.5,5.5-1,11h-1V284c0,9.427-.227,19.1,2,26v4h1v3h1v2h1l2,6,2,1v2l2,1v2l2,1,5,6h2l2,3,4,1,1,2c4.381,2.331,23.627,7.448,32,5,15.08-4.409,24.116-9.291,32-21l2-1c11.068-17.5,8-49.677,8-78V195q-0.5-13-1-26h-1q-0.5-3-1-6h-1v-2h-1v-2h-1v-2l-2-2v-2l-3-2v-2l-5-4-2-3h-2l-2-3h-2l-2-2h-2v-1h-2v-1h-2v-1l-6-1v-1Zm169,0v1h-6v1h-3v1h-3v1h-2v1h-2l-2,2h-2l-1,2h-2l-2,3h-2l-1,2-4,3v2l-3,2v2l-2,1-1,4h-1v2h-1v3h-1v2h-1q-0.5,5.5-1,11h-1V284c0,9.427-.227,19.1,2,26v4h1v3h1v2h1l2,6,2,1v2l2,1v2l2,1,5,6h2l2,3,4,1,1,2h3v1l4,1v1c3.124,1.235,19.967,3.471,25,2,15.08-4.409,24.116-9.291,32-21l2-1c11.068-17.5,8-49.677,8-78V195q-0.5-13-1-26h-1q-0.5-3-1-6h-1v-2h-1v-2h-1v-2l-2-2v-2l-3-2v-2l-5-4-2-3h-2l-2-3h-2l-2-2h-2v-1h-2v-1h-2v-1l-6-1v-1Zm169,0v1h-6v1h-3v1h-3v1h-2v1h-2l-2,2h-2q-0.5,1-1,2h-2l-2,3h-2q-0.5,1-1,2l-4,3v2l-3,2v2l-2,1-1,4h-1v2h-1v3h-1v2h-1q-0.5,5.5-1,11h-1V284c0,9.427-.227,19.1,2,26v4h1v3h1v2h1l2,6,2,1v2l2,1v2l2,1,5,6h2l2,3,4,1q0.5,1,1,2h3v1l4,1v1c3.124,1.235,19.967,3.471,25,2,15.08-4.409,24.116-9.291,32-21l2-1c11.068-17.5,8-49.677,8-78V195q-0.5-13-1-26h-1q-0.5-3-1-6h-1v-2h-1v-2h-1v-2l-2-2v-2l-3-2v-2l-5-4-2-3h-2l-2-3h-2l-2-2h-2v-1h-2v-1h-2v-1l-6-1v-1ZM667,330a118.546,118.546,0,0,1,14,1c1.46,2.305,4.482,2.9,6,5v2h1c0.963,1.237.71,1.94,2,3,0.425,6.752,1.511,12.773-2,18h-1l-4,5c-1.682,1.154-2.258.033-4,2l-8,1v-1l-7-1c-2.778-4.17-7.164-4.191-8-11h-1v-4h-1q1-5.5,2-11l3-2q0.5-1.5,1-3C662.253,332.226,665.171,332.145,667,330Z"/>
</svg>
